<?xml version="1.0" encoding="UTF-8"?>
<svg width="17px" height="16px" viewBox="0 0 17 16" version="1.1" xmlns="http://www.w3.org/2000/svg" xmlns:xlink="http://www.w3.org/1999/xlink">
    <!-- Generator: Sketch 50.2 (55047) - http://www.bohemiancoding.com/sketch -->
    <title>star_filled</title>
    <desc>Created with Sketch.</desc>
    <defs></defs>
    <g id="Page-1" stroke="none" stroke-width="1" fill="none" fill-rule="evenodd">
        <g id="Desktop-HD-Home-Full-Ideal" transform="translate(-732.000000, -3132.000000)" fill="#F5BF2B" fill-rule="nonzero">
            <g id="Quotes-clients" transform="translate(384.000000, 3043.000000)">
                <g id="Rating-stars" transform="translate(286.000000, 89.000000)">
                    <g id="star_filled" transform="translate(62.500000, 0.000000)">
                        <path d="M8.86945762,0.503554281 L10.6939586,4.20047168 C10.8208334,4.45759572 11.0661473,4.63576042 11.3499286,4.67692726 L15.4298326,5.26979727 C16.1445159,5.37372668 16.4296469,6.25172768 15.9126994,6.75551535 L12.9604969,9.6331451 C12.7553376,9.83324295 12.6615312,10.1217483 12.7101215,10.4041798 L13.4069209,14.4675496 C13.5290717,15.1791961 12.7819948,15.7217885 12.1428964,15.3860426 L8.49389454,13.4677352 C8.24014483,13.3344491 7.93679244,13.3344491 7.68304273,13.4677352 L4.03404084,15.3860426 C3.39494248,15.722126 2.64786553,15.1791961 2.77001632,14.4675496 L3.46681574,10.4041798 C3.51540611,10.1217483 3.4215997,9.83324295 3.21644036,9.6331451 L0.264237885,6.75551535 C-0.252709673,6.25139025 0.0324213235,5.37338924 0.747104697,5.26979727 L4.8270087,4.67692726 C5.11078996,4.63576042 5.35610385,4.45759572 5.4829787,4.20047168 L7.30747965,0.503554281 C7.62669139,-0.143979899 8.54990844,-0.143979899 8.86945762,0.503554281 Z" id="Shape"></path>
                    </g>
                </g>
            </g>
        </g>
    </g>
</svg>